<svg width="47" height="32" viewBox="0 0 47 32" fill="none" xmlns="http://www.w3.org/2000/svg">
<path d="M9.5396 32C6.43729 32 4.07178 31.13 2.44307 29.3901C0.814357 27.5745 0 25.3806 0 22.8085V21.3333C0 19.3664 0.310231 17.3995 0.930693 15.4326C1.62871 13.4657 2.52063 11.5745 3.60644 9.75886C4.69224 7.86761 5.93317 6.12766 7.32921 4.53901C8.72525 2.87471 10.1988 1.3617 11.75 0H20.9406C15.3564 4.53901 11.8276 9.26714 10.354 14.1844H10.5866C12.9909 14.1844 15.0074 14.9409 16.6361 16.4539C18.2648 17.9669 19.0792 19.9716 19.0792 22.4681V23.0355C19.0792 25.5319 18.2261 27.6501 16.5198 29.3901C14.8911 31.13 12.5644 32 9.5396 32ZM35.599 32C32.4967 32 30.1312 31.13 28.5025 29.3901C26.8738 27.5745 26.0594 25.3806 26.0594 22.8085V21.3333C26.0594 19.3664 26.3696 17.3995 26.9901 15.4326C27.6881 13.4657 28.58 11.5745 29.6658 9.75886C30.7516 7.86761 31.9926 6.12766 33.3886 4.53901C34.7846 2.87471 36.2582 1.3617 37.8094 0H47C41.4158 4.53901 37.887 9.26714 36.4134 14.1844H36.646C39.0503 14.1844 41.0668 14.9409 42.6955 16.4539C44.3243 17.9669 45.1386 19.9716 45.1386 22.4681V23.0355C45.1386 25.5319 44.2855 27.6501 42.5792 29.3901C40.9505 31.13 38.6238 32 35.599 32Z" fill="#FF9874"/>
</svg>
