<svg width="54" height="54" viewBox="0 0 54 54" fill="none" xmlns="http://www.w3.org/2000/svg">
<path d="M52.5046 33.4952C52.2434 33.1551 51.9667 32.8262 51.7124 32.4813C51.5566 32.2697 51.0346 31.6811 51.0808 31.3923C51.1129 31.1912 51.5569 30.8915 51.7096 30.725C51.9839 30.426 52.2282 30.1052 52.4548 29.7721C52.8919 29.1294 53.2217 28.4403 53.4733 27.7136C55.5565 21.695 51.1397 15.9759 45.8505 13.1022C44.2571 12.2365 42.5216 11.6029 40.7427 11.2428C38.1925 10.6778 35.4936 10.7135 32.9811 11.4119C32.1485 7.49646 29.5566 4.00133 25.9412 1.96198C23.419 0.539207 20.4561 -0.107 17.5323 0.0143943C15.7143 0.0566873 13.886 0.375625 12.1527 0.947372C6.39903 2.8456 0.953553 7.69337 1.83939 13.9742C1.94635 14.7326 2.13755 15.4677 2.44313 16.176C2.60157 16.5432 2.77971 16.9012 2.99173 17.2433C3.10964 17.4335 3.48818 17.8059 3.48088 18.0093C3.47058 18.3012 2.84381 18.7884 2.64973 18.969C2.3333 19.2635 1.99772 19.5385 1.67542 19.8269C0.990976 20.4394 0.422779 21.0905 0.153074 21.9599C0.0415831 22.3195 0.377497 22.7416 0.778179 22.7128C2.21384 22.6098 3.66887 22.6197 5.10818 22.6287C5.87999 22.6335 6.20439 23.0878 6.72143 23.5598C7.19297 23.9902 7.69396 24.3887 8.21533 24.7631C8.68155 25.098 9.16638 25.409 9.66571 25.697C9.28761 25.8839 8.91638 26.0834 8.55523 26.2986C6.99512 27.1888 5.5691 28.3244 4.35664 29.6356C0.331771 33.9881 -1.89927 40.7626 2.1205 45.8123C2.60588 46.4221 3.15238 46.972 3.78479 47.4449C4.11251 47.69 4.45274 47.918 4.81423 48.1161C5.01529 48.2263 5.53721 48.3727 5.63619 48.5531C5.77824 48.812 5.48484 49.53 5.40944 49.7783C5.28644 50.1831 5.13664 50.5799 5.00533 50.9821C4.72654 51.8363 4.56888 52.6697 4.7839 53.5528C4.8728 53.918 5.38354 54.1276 5.71723 53.9146C6.9133 53.1512 8.18455 52.4768 9.44151 51.809C10.1157 51.4508 10.6329 51.694 11.3269 51.8619C11.9599 52.0152 12.6019 52.1267 13.2493 52.2079C15.7728 52.5243 18.3657 52.2988 20.8007 51.5972C23.1218 50.9283 25.355 49.8459 27.165 48.2948C28.9812 46.7384 30.2617 44.6733 30.9503 42.4489C31.3857 41.0422 31.5831 39.5858 31.554 38.1371C33.5417 38.7895 35.6786 39.03 37.7728 38.9569C40.3151 38.8683 42.8445 38.2805 45.1239 37.2015C45.7086 36.9248 46.2779 36.6209 46.8247 36.2804C47.424 35.9071 47.8305 35.5172 48.59 35.6478C50.0064 35.8911 51.4386 36.1363 52.8299 36.4889C53.2182 36.5873 53.6299 36.2312 53.5896 35.8584C53.492 34.9566 53.0591 34.2171 52.5046 33.4952ZM8.50474 23.462C7.48537 22.6699 6.69574 21.535 5.2706 21.4974C4.14551 21.4679 3.02052 21.5278 1.8952 21.528C2.63323 20.6551 3.67629 20.0194 4.39761 19.1202C4.77858 18.6453 5.04762 18.1369 4.82397 17.5337C4.59767 16.9235 4.06313 16.4078 3.77726 15.8109C2.67696 13.5126 2.92287 10.6988 4.09535 8.47162C6.78255 3.36725 13.5417 0.668618 19.3163 1.02774C19.6209 1.04672 19.9256 1.07647 20.2296 1.11528C21.5735 1.34478 22.886 1.75336 24.1197 2.34631C27.7467 4.0896 30.3804 7.38055 31.3889 11.1162C31.4576 11.3703 31.5158 11.6262 31.5665 11.8829C27.7261 13.3837 24.6356 16.4212 23.1944 20.1365C22.5709 21.7436 22.2722 23.4393 22.2811 25.1312C20.5756 24.4591 18.7413 24.0809 16.8798 24.0465C14.8961 24.0099 12.9212 24.3788 11.0823 25.0785C10.1698 24.6212 9.30356 24.0827 8.50474 23.462ZM29.7865 41.3984C29.2924 43.5091 28.2579 45.5055 26.639 47.0383C25.0108 48.58 22.9134 49.6525 20.742 50.3241C18.2079 51.1079 15.4626 51.3679 12.828 50.9396C11.5313 50.7289 10.257 50.1119 8.99754 50.7482C8.00319 51.2505 7.05535 51.8308 6.07618 52.3591C6.26694 51.2531 6.84565 50.2103 7.0083 49.0893C7.09421 48.4972 7.06532 47.9285 6.55868 47.5086C6.04606 47.0838 5.31423 46.886 4.75677 46.5007C2.61053 45.0174 1.36907 42.4535 1.23732 39.9651C0.935285 34.262 5.42107 28.741 10.6318 26.3431C10.9067 26.2167 11.1872 26.0995 11.4718 25.9906C12.7599 25.5595 14.1134 25.299 15.4937 25.2359C19.5516 25.0505 23.5455 26.678 26.3554 29.4552C29.5176 32.5806 30.7758 37.1725 29.7865 41.3984ZM48.6483 34.5073C47.2403 34.2945 46.2449 35.2719 45.0901 35.8719C42.7436 37.091 40.0581 37.6932 37.3943 37.7347C35.3873 37.7659 33.3292 37.486 31.4578 36.7687C31.1347 34.0549 30.018 31.4331 28.1827 29.2899C26.9602 27.8622 25.4494 26.684 23.7667 25.8079C23.6526 23.7332 24.0441 21.6366 24.9792 19.7279C26.6917 16.2327 29.9157 13.4591 33.8174 12.3809C35.1445 12.0142 36.5135 11.8425 37.8788 11.8523C38.185 11.8675 38.4903 11.8916 38.7933 11.9263C44.5387 12.5847 50.6617 16.4213 52.3177 21.9095C53.0403 24.3041 52.7388 27.1129 51.2137 29.1793C50.8175 29.716 50.1925 30.1291 49.8523 30.6894C49.5161 31.2431 49.6824 31.7899 49.9651 32.3235C50.5007 33.3337 51.4031 34.1414 51.9601 35.1287C50.8541 34.9314 49.7599 34.6755 48.6483 34.5073Z" fill="#475A7A"/>
<path d="M47.4347 18.9527C44.4585 18.8297 41.4903 18.7381 38.5112 18.762C35.5356 18.7859 32.5626 18.8474 29.5877 18.8966C29.2252 18.9026 29.2246 19.4273 29.5877 19.4332C32.5626 19.4824 35.5356 19.5438 38.5112 19.5678C41.4903 19.5917 44.4587 19.5001 47.4347 19.3772C47.7214 19.3655 47.7218 18.9647 47.4347 18.9527Z" fill="#475A7A"/>
<path d="M47.4347 22.0022C44.4585 21.8792 41.4903 21.7877 38.5112 21.8116C35.5356 21.8356 32.5626 21.8971 29.5877 21.9462C29.2252 21.9522 29.2246 22.4769 29.5877 22.483C32.5626 22.5321 35.5356 22.5936 38.5112 22.6175C41.4903 22.6415 44.4587 22.5498 47.4347 22.4269C47.7214 22.415 47.7218 22.0142 47.4347 22.0022Z" fill="#475A7A"/>
<path d="M47.4347 25.052C44.4585 24.929 41.4903 24.8373 38.5112 24.8613C35.5356 24.8852 32.5626 24.9467 29.5877 24.9959C29.2252 25.0019 29.2246 25.5265 29.5877 25.5325C32.5626 25.5816 35.5356 25.6431 38.5112 25.6671C41.4903 25.691 44.4587 25.5993 47.4347 25.4765C47.7214 25.4646 47.7218 25.0638 47.4347 25.052Z" fill="#475A7A"/>
<path d="M47.4347 28.1014C44.4585 27.9784 41.4903 27.8869 38.5112 27.9107C35.5356 27.9346 32.5626 27.9961 29.5877 28.0453C29.2252 28.0513 29.2246 28.576 29.5877 28.582C32.5626 28.6312 35.5356 28.6927 38.5112 28.7166C41.4903 28.7405 44.4587 28.6489 47.4347 28.526C47.7214 28.5142 47.7218 28.1132 47.4347 28.1014Z" fill="#475A7A"/>
<path d="M16.5067 32.7018C13.1593 32.7287 9.81487 32.798 6.46813 32.8533C6.06036 32.86 6.0597 33.4502 6.46813 33.457C9.81487 33.5122 13.1592 33.5815 16.5067 33.6083C19.8581 33.6353 23.1972 33.5322 26.5452 33.3939C26.8677 33.3805 26.8683 32.9295 26.5452 32.9162C23.1972 32.778 19.8581 32.6749 16.5067 32.7018Z" fill="#475A7A"/>
<path d="M26.5452 36.3468C23.1973 36.2086 19.8581 36.1054 16.5067 36.1324C13.1593 36.1593 9.81486 36.2285 6.46813 36.2839C6.06036 36.2906 6.0597 36.8808 6.46813 36.8877C9.81486 36.9429 13.1592 37.0121 16.5067 37.039C19.8581 37.066 23.1971 36.9629 26.5452 36.8246C26.8676 36.8112 26.8682 36.3602 26.5452 36.3468Z" fill="#475A7A"/>
<path d="M26.5452 39.7774C23.1973 39.6391 19.8581 39.536 16.5067 39.563C13.1593 39.5899 9.81486 39.6591 6.46813 39.7144C6.06036 39.7212 6.0597 40.3114 6.46813 40.3181C9.81486 40.3734 13.1592 40.4427 16.5067 40.4696C19.8581 40.4965 23.1971 40.3934 26.5452 40.2552C26.8676 40.2418 26.8682 39.7907 26.5452 39.7774Z" fill="#475A7A"/>
<path d="M26.5452 43.208C23.1973 43.0696 19.8581 42.9666 16.5067 42.9936C13.1593 43.0205 9.81486 43.0898 6.46813 43.145C6.06036 43.1518 6.0597 43.742 6.46813 43.7487C9.81486 43.804 13.1592 43.8732 16.5067 43.9002C19.8581 43.9272 23.1971 43.824 26.5452 43.6858C26.8676 43.6724 26.8682 43.2213 26.5452 43.208Z" fill="#475A7A"/>
<path d="M8.60508 8.60315C11.6921 8.65842 14.7769 8.72771 17.8645 8.7546C20.9558 8.7816 24.0358 8.67845 27.1239 8.54018C27.4213 8.52689 27.4219 8.0758 27.1239 8.06251C24.0357 7.92414 20.9558 7.8211 17.8645 7.84799C14.7769 7.87488 11.6921 7.94418 8.60508 7.99944C8.22898 8.00619 8.22831 8.5964 8.60508 8.60315Z" fill="#475A7A"/>
<path d="M8.60508 12.0337C11.6921 12.089 14.7769 12.1582 17.8645 12.1851C20.9558 12.2121 24.0358 12.1089 27.1239 11.9707C27.4213 11.9574 27.4219 11.5063 27.1239 11.493C24.0357 11.3546 20.9558 11.2516 17.8645 11.2785C14.7769 11.3054 11.6921 11.3746 8.60508 11.4299C8.22898 11.4367 8.22831 12.027 8.60508 12.0337Z" fill="#475A7A"/>
<path d="M20.5401 19.0602C20.8814 19.0513 21.4267 18.8269 21.1456 18.5668C21.101 18.5255 21.0355 18.4832 20.9451 18.441C20.7704 18.3591 20.5683 18.3549 20.3736 18.3523C18.307 18.3244 16.2127 18.3794 14.1567 18.312C12.3156 18.2516 10.4629 18.258 8.60508 18.2911C8.22898 18.2978 8.22831 18.888 8.60508 18.8948C12.5935 18.8948 16.5643 19.1634 20.5401 19.0602Z" fill="#475A7A"/>
<path d="M8.60508 15.6532C12.5935 15.6532 16.5643 15.9216 20.5401 15.8186C20.8814 15.8097 21.4267 15.5853 21.1456 15.3252C21.101 15.284 21.0355 15.2418 20.9451 15.1994C20.7704 15.1175 20.5683 15.1133 20.3736 15.1107C18.307 15.0828 16.2127 15.1378 14.1567 15.0704C12.3156 15.0101 10.4629 15.0164 8.60508 15.0496C8.22898 15.0562 8.22831 15.6466 8.60508 15.6532Z" fill="#475A7A"/>
</svg>
