<svg width="64" height="54" viewBox="0 0 64 54" fill="none" xmlns="http://www.w3.org/2000/svg">
<path d="M55.6445 2.4188C55.127 1.39143 54.3374 0.361854 53.1577 0.0750637C52.4878 -0.0877823 51.805 0.0419214 51.1493 0.202288C50.2884 0.412911 49.4322 0.645387 48.5752 0.870908C43.8169 2.12267 39.0809 3.44807 34.3777 4.88185C30.8794 5.73056 27.3938 6.64035 23.9063 7.52927C19.9578 8.53563 16.0019 9.51739 12.0838 10.6363C10.1303 11.1941 8.18351 11.7753 6.24869 12.3938C5.28816 12.7007 4.32899 13.0136 3.37642 13.3444C2.57358 13.6232 1.76744 13.9379 1.1335 14.5201C-0.00660869 15.5671 -0.117911 17.1601 0.0781592 18.5968C0.326375 20.4161 0.846178 22.2262 1.28883 24.0065C2.28296 28.0045 3.40542 31.9714 4.55059 35.929C5.11782 37.8893 5.70216 39.8447 6.29361 41.7979C6.84425 43.6161 7.29957 45.5172 8.0348 47.2722C8.6975 48.854 9.90102 49.7046 11.6248 49.81C13.5143 49.9254 15.4748 49.7199 17.352 49.517C21.2943 49.0908 25.1863 48.2594 28.9441 46.9986C29.6603 46.7583 30.5386 46.2663 31.2458 46.7564C31.8734 47.1914 32.3049 47.9299 32.7814 48.5096C33.9195 49.8945 35.2024 51.1615 36.6026 52.285C37.3022 52.8463 38.0278 53.3779 38.7701 53.8822C39.2039 54.1769 39.9369 53.8864 40.0324 53.3671C40.3351 51.7212 40.5848 50.0665 40.854 48.4149C40.9822 47.6285 41.1154 46.8428 41.246 46.0569C41.3459 45.4568 41.3422 44.5502 41.8062 44.0928C42.2512 43.6539 43.0967 43.4318 43.6634 43.2015C44.4395 42.8863 45.222 42.5935 46.0127 42.3162C47.5932 41.762 49.1894 41.2537 50.7857 40.747C53.891 39.7612 56.999 38.7715 60.0026 37.5057C61.3104 36.9546 62.9617 36.4137 63.645 35.0654C64.2578 33.8561 63.952 32.4593 63.6581 31.2083C62.1268 24.6917 60.4857 18.1969 58.7973 11.7188C57.9756 8.56642 57.1183 5.34486 55.6445 2.4188ZM56.9129 10.9973C58.5853 17.2955 60.1211 23.633 61.6357 29.9703C61.8087 30.6943 61.9893 31.4171 62.1543 32.143C62.2862 32.7236 62.4155 33.3516 62.2939 33.9456C62.174 34.532 61.7526 34.867 61.2498 35.1476C60.5189 35.5553 59.7292 35.8792 58.959 36.2052C56.0548 37.4343 53.0302 38.3567 50.0254 39.3065C48.3148 39.8473 46.6053 40.3935 44.9167 40.9994C44.0931 41.2948 43.269 41.5893 42.4543 41.9088C41.744 42.1875 40.9614 42.444 40.4389 43.0278C39.9698 43.5518 39.8016 44.2209 39.6875 44.894C39.5411 45.7584 39.404 46.6243 39.2618 47.4894C39.0321 48.888 38.7838 50.2837 38.5599 51.6833C37.4456 50.8931 36.4039 50.0081 35.4346 49.0428C34.8755 48.486 34.342 47.9041 33.8364 47.2991C33.3129 46.6726 32.8472 45.9844 32.1754 45.501C30.6959 44.4367 29.0443 45.3335 27.5148 45.8101C25.696 46.3769 23.8467 46.847 21.9776 47.2186C20.1 47.5918 18.2041 47.8646 16.2964 48.0294C15.3469 48.1115 14.3952 48.1684 13.4428 48.1999C12.6512 48.2262 11.7826 48.3121 11.0061 48.1199C9.43072 47.7299 9.14649 45.6185 8.72763 44.3155C8.12767 42.4489 7.51338 40.5869 6.9176 38.7191C5.7027 34.9098 4.51598 31.0832 3.53262 27.2075C3.05105 25.3095 2.59806 23.4042 2.18307 21.4907C1.87273 20.0598 1.34095 18.3859 1.66918 16.912C2.03997 15.2473 3.88723 14.9211 5.29141 14.4513C7.14075 13.8324 9.00271 13.251 10.872 12.6946C14.6115 11.5816 18.3739 10.5408 22.1329 9.49504C23.6517 9.07249 25.1694 8.64655 26.6872 8.22105C26.7548 8.23635 26.8305 8.23689 26.915 8.21288C33.2103 6.42804 39.5185 4.67434 45.8573 3.04746C47.4427 2.64058 49.0302 2.24199 50.6199 1.85191C51.2222 1.70408 51.9178 1.44195 52.5487 1.5173C53.1567 1.59001 53.5525 2.05821 53.8516 2.54834C54.6098 3.79098 55.119 5.21658 55.5938 6.58407C56.0975 8.03558 56.5189 9.51314 56.9129 10.9973Z" fill="#475A7A"/>
<path d="M14.6731 25.4345C12.3174 27.5056 12.4935 31.6642 15.4537 33.0858C15.4866 33.1016 15.5191 33.1134 15.5511 33.1216C16.8827 33.9129 18.5854 34.0278 20.0205 33.2248C22.3785 31.9055 22.89 28.9619 21.4193 26.7827C19.9086 24.5442 16.8653 23.5071 14.6731 25.4345ZM19.7818 31.8249C18.3155 32.9752 16.292 32.6639 15.1295 31.2474C14.3759 30.3293 14.1616 29.1839 14.3927 28.1215C14.5361 27.6768 14.7637 27.2537 15.0778 26.882C15.6741 26.176 16.5849 25.6613 17.5359 25.7468C18.5046 25.8339 19.4182 26.4381 20.0297 27.1654C21.2087 28.5675 21.304 30.6307 19.7818 31.8249Z" fill="#475A7A"/>
<path d="M29.2921 21.5456C26.9364 23.6167 27.1125 27.7753 30.0727 29.1969C30.1055 29.2127 30.1382 29.2245 30.1701 29.2327C31.5017 30.024 33.2044 30.1389 34.6395 29.3359C36.9976 28.0166 37.509 25.073 36.0384 22.8938C34.5276 20.6553 31.4844 19.6181 29.2921 21.5456ZM34.4008 27.936C32.9346 29.0863 30.911 28.775 29.7485 27.3585C28.995 26.4404 28.7806 25.295 29.0117 24.2326C29.1551 23.7879 29.3827 23.3648 29.6968 22.9931C30.2931 22.2871 31.2039 21.7724 32.1549 21.8579C33.1236 21.945 34.0372 22.5492 34.6487 23.2765C35.8277 24.6786 35.923 26.7418 34.4008 27.936Z" fill="#475A7A"/>
<path d="M43.9111 17.6565C41.5554 19.7276 41.7315 23.8863 44.6917 25.3078C44.7246 25.3236 44.7572 25.3354 44.7891 25.3437C46.1208 26.135 47.8233 26.2499 49.2585 25.4469C51.6165 24.1276 52.128 21.184 50.6574 19.0048C49.1467 16.7663 46.1035 15.7291 43.9111 17.6565ZM49.0199 24.0469C47.5536 25.1972 45.5301 24.8859 44.3676 23.4694C43.614 22.5514 43.3998 21.4059 43.6309 20.3435C43.7743 19.8988 44.0019 19.4757 44.3159 19.104C44.9123 18.398 45.8231 17.8833 46.774 17.9688C47.7427 18.0559 48.6563 18.6601 49.2678 19.3874C50.4468 20.7895 50.542 22.8527 49.0199 24.0469Z" fill="#475A7A"/>
</svg>
